<svg width="40" height="41" viewBox="0 0 40 41" fill="none" xmlns="http://www.w3.org/2000/svg">
<mask id="mask0_3121_10512" style="mask-type:luminance" maskUnits="userSpaceOnUse" x="23" y="3" width="16" height="16">
<path fill-rule="evenodd" clip-rule="evenodd" d="M23.9219 3.83374H38.1535V18.0551H23.9219V3.83374Z" fill="white"/>
</mask>
<g mask="url(#mask0_3121_10512)">
<path fill-rule="evenodd" clip-rule="evenodd" d="M36.903 18.0551C36.2747 18.0551 35.7347 17.5834 35.663 16.9451C35.0314 11.3184 30.6614 6.95176 25.033 6.32676C24.348 6.2501 23.853 5.63343 23.9297 4.94676C24.0047 4.26176 24.6164 3.75676 25.3097 3.84343C32.1064 4.59843 37.3847 9.8701 38.1464 16.6651C38.223 17.3518 37.7297 17.9701 37.0447 18.0468C36.998 18.0518 36.9497 18.0551 36.903 18.0551Z" fill="#D23216"/>
</g>
<path fill-rule="evenodd" clip-rule="evenodd" d="M31.0034 18.0732C30.4168 18.0732 29.8951 17.6598 29.7784 17.0632C29.2984 14.5965 27.3968 12.6948 24.9334 12.2165C24.2551 12.0848 23.8134 11.4298 23.9451 10.7515C24.0768 10.0732 24.7434 9.62985 25.4101 9.76318C28.8784 10.4365 31.5568 13.1132 32.2318 16.5832C32.3634 17.2632 31.9218 17.9182 31.2451 18.0498C31.1634 18.0648 31.0834 18.0732 31.0034 18.0732Z" fill="#D23216"/>
<path d="M5.60264 7.18686C8.81477 3.97444 10.9069 3.12251 13.1388 4.40561C13.7808 4.77479 14.3829 5.29219 15.2013 6.12338L17.712 8.7269C19.0987 10.24 19.4145 11.6913 18.963 13.391L18.9005 13.6165L18.8312 13.8402L18.4962 14.8246C17.7778 17.0328 18.0771 18.2791 20.6329 20.8343C23.2907 23.4914 24.5317 23.7085 26.9103 22.8773L27.3341 22.7298L27.8468 22.5638L28.0714 22.5013C29.878 22.0193 31.404 22.4044 33.0226 24.0218L35.046 25.9749L35.6407 26.5609C36.3009 27.2341 36.7374 27.7676 37.0597 28.3314C38.3352 30.5628 37.4828 32.6539 34.1778 35.9466L33.8634 36.265C33.37 36.7405 32.9088 37.0811 32.2316 37.4027C31.0948 37.9423 29.7519 38.146 28.1915 37.929C24.3458 37.3942 19.4676 34.3598 13.2872 28.181C12.7841 27.678 12.302 27.1842 11.8409 26.7005L10.9464 25.7464C2.56363 16.6388 1.82388 11.0435 5.25889 7.53451L5.48155 7.31283L5.60264 7.18686ZM11.8927 6.57358C11.1235 6.1313 10.2929 6.31811 8.75596 7.64096L8.27354 8.0726C8.18932 8.15034 8.10291 8.23105 8.01475 8.31479L7.46104 8.85385L7.41124 8.91635L7.03526 9.2933C6.12809 10.22 5.69815 11.3513 6.06846 13.2962C6.67614 16.4879 9.45826 20.8173 15.0548 26.4124C20.8861 32.2423 25.3292 35.0065 28.5353 35.4525C30.4043 35.7124 31.358 35.26 32.3302 34.264L33.0714 33.516C33.4191 33.1522 33.7161 32.8221 33.9669 32.5208L34.3087 32.0902C35.1829 30.9257 35.2634 30.2267 34.8898 29.5726C34.7475 29.3238 34.5405 29.0505 34.2394 28.7171L33.8302 28.2855L33.588 28.0433L31.0362 25.5785C30.1835 24.7922 29.6006 24.6804 28.7159 24.9163L28.4601 24.9906L27.4034 25.349C24.3366 26.3394 22.1234 25.8592 18.8653 22.6019C15.4911 19.2285 15.0951 16.9754 16.2257 13.7318L16.2989 13.5238L16.4991 12.9193L16.5978 12.5345C16.7726 11.6963 16.573 11.1115 15.672 10.2103C15.6349 10.1732 15.5931 10.1311 15.548 10.0853L13.1778 7.6351C12.6349 7.0998 12.2404 6.77354 11.8927 6.57358Z" fill="#D23216"/>
</svg>
