<svg width="50" height="50" viewBox="0 0 50 50" fill="none" xmlns="http://www.w3.org/2000/svg">
<rect width="50" height="50" rx="25" fill="#134397"/>
<path d="M25 18.75C25.6875 18.75 26.25 18.1875 26.25 17.5C26.25 16.8125 25.6875 16.25 25 16.25C24.3125 16.25 23.75 16.8125 23.75 17.5C23.75 18.1875 24.3125 18.75 25 18.75Z" stroke="white" stroke-width="3"/>
<path d="M25 26.25C25.6875 26.25 26.25 25.6875 26.25 25C26.25 24.3125 25.6875 23.75 25 23.75C24.3125 23.75 23.75 24.3125 23.75 25C23.75 25.6875 24.3125 26.25 25 26.25Z" stroke="white" stroke-width="3"/>
<path d="M25 33.75C25.6875 33.75 26.25 33.1875 26.25 32.5C26.25 31.8125 25.6875 31.25 25 31.25C24.3125 31.25 23.75 31.8125 23.75 32.5C23.75 33.1875 24.3125 33.75 25 33.75Z" stroke="white" stroke-width="3"/>
</svg>
