<svg width="40" height="31" viewBox="0 0 40 31" fill="none" xmlns="http://www.w3.org/2000/svg">
<g clip-path="url(#clip0_3121_12231)">
<path d="M19.7987 0.975586C25.1819 0.975586 30.5668 0.975586 35.95 0.978827C36.5219 0.978827 37.0922 1.01286 37.6437 1.21221C38.9519 1.68545 39.8997 2.97713 39.9624 4.40658C39.9859 4.93654 40 5.46813 40 5.99809C40.0031 12.6073 40.0031 19.218 40 25.8272C40 26.6035 39.9499 27.3766 39.566 28.0735C38.9331 29.2258 37.9836 29.8838 36.6958 29.9826C36.2493 30.0167 35.798 30.0231 35.35 30.0231C24.8827 30.0248 14.4138 30.0248 3.94657 30.0231C3.06451 30.0231 2.22161 29.8789 1.49309 29.3165C0.603188 28.6294 0.10027 27.7185 0.0423015 26.5646C0.017234 26.0622 0.00470017 25.5565 0.00470017 25.0541C0 18.3915 0 11.7288 0 5.06458C0 4.16996 0.128471 3.30775 0.65489 2.56062C1.31448 1.6271 2.19185 1.08903 3.31675 1.01772C3.77737 0.988551 4.23955 0.977207 4.70174 0.977207C9.73405 0.975586 14.7664 0.975586 19.7987 0.975586ZM35.9923 3.41634H3.97791C4.40562 3.83934 4.80514 4.22344 5.19212 4.62051C7.64874 7.13906 10.1054 9.66084 12.5589 12.1826C14.16 13.8292 15.7565 15.4775 17.3515 17.129C17.917 17.714 18.5625 18.15 19.3631 18.2813C20.6447 18.4903 21.721 18.0933 22.6407 17.1387C24.8905 14.8033 27.1576 12.4873 29.4215 10.1665C31.5695 7.96399 33.7206 5.76633 35.8701 3.56544C35.9093 3.52655 35.9406 3.47955 35.9923 3.41634ZM4.08915 27.5856H36.0049C35.9563 27.5322 35.9312 27.503 35.9046 27.4754C34.7374 26.2842 33.5702 25.0963 32.4045 23.9034C30.2628 21.7139 28.1227 19.5243 25.9841 17.3299C25.8823 17.2262 25.829 17.2343 25.735 17.3332C25.2321 17.8599 24.7245 18.3818 24.2153 18.9004C23.0794 20.0608 21.7148 20.7026 20.1152 20.7399C18.4278 20.7788 16.9974 20.1126 15.7941 18.915C15.274 18.398 14.7711 17.8615 14.265 17.3299C14.1726 17.2327 14.1209 17.2213 14.0175 17.3299C12.4257 18.9652 10.8276 20.594 9.2327 22.2276C7.90568 23.5858 6.58024 24.9439 5.25949 26.3102C4.85057 26.7332 4.46516 27.1772 4.08915 27.5905V27.5856ZM12.3411 15.4467C9.07759 12.053 5.73264 8.5766 2.35948 5.06782V25.8758C2.37672 25.8888 2.39395 25.9017 2.41119 25.9147C5.72951 22.4173 9.04782 18.9182 12.3411 15.4451V15.4467ZM37.6468 5.13103C37.6295 5.11644 37.6123 5.10185 37.5951 5.08727C34.2439 8.55878 30.8926 12.0319 27.5305 15.5131C30.9083 18.9814 34.2689 22.4319 37.6468 25.9001V5.13103Z" fill="#D23216"/>
</g>
<defs>
<clipPath id="clip0_3121_12231">
<rect width="40" height="29.0492" fill="white" transform="translate(0 0.975586)"/>
</clipPath>
</defs>
</svg>
