<svg width="100" height="101" viewBox="0 0 100 101" fill="none" xmlns="http://www.w3.org/2000/svg">
<path d="M36.1988 53.947L34.5827 52.0396L34.5827 52.0397L36.1988 53.947ZM36.4051 53.7495L34.6239 51.9953L34.6219 51.9973L36.4051 53.7495ZM27.7265 61.1256L26.1104 59.2182L26.1104 59.2182L27.7265 61.1256ZM27.2624 61.6143L29.3144 63.0423L29.3144 63.0423L27.2624 61.6143ZM72.2365 54.247L70.5051 56.0504L72.2365 54.247ZM65.0056 47.3053L63.2742 49.1088L63.2742 49.1088L65.0056 47.3053ZM62.3203 47.2864L60.6145 45.4588L60.6082 45.4647L62.3203 47.2864ZM48.9268 59.8743L50.6326 61.702L50.639 61.696L48.9268 59.8743ZM46.2003 59.8148L44.4104 61.5601L44.4139 61.5638L46.2003 59.8148ZM46.1651 59.7787L44.3735 61.5223L44.3752 61.524L46.1651 59.7787ZM45.9737 59.5929L47.6105 57.7032L47.6105 57.7032L45.9737 59.5929ZM39.449 53.9414L41.0858 52.0517L41.0858 52.0517L39.449 53.9414ZM39.2568 53.7548L41.0491 52.0118L41.0474 52.0101L39.2568 53.7548ZM39.2225 53.7195L41.013 51.9748L41.0096 51.9713L39.2225 53.7195ZM36.4422 53.7119L34.6645 51.954L34.661 51.9576L36.4422 53.7119ZM66.8732 29.4055V26.9055C65.4925 26.9055 64.3732 28.0248 64.3732 29.4055H66.8732ZM68.2137 29.4055H70.7137C70.7137 28.0248 69.5944 26.9055 68.2137 26.9055V29.4055ZM68.2137 30.5407V33.0407C69.5944 33.0407 70.7137 31.9214 70.7137 30.5407H68.2137ZM66.8732 30.5407H64.3732C64.3732 31.9214 65.4925 33.0407 66.8732 33.0407V30.5407ZM12.5 27.0625H10V73.9375H12.5H15V27.0625H12.5ZM26.5625 88V90.5H73.4375V88V85.5H26.5625V88ZM87.5 73.9375H90V27.0625H87.5H85V73.9375H87.5ZM73.4375 13V10.5H26.5625V13V15.5H73.4375V13ZM87.5 27.0625H90C90 17.9153 82.5847 10.5 73.4375 10.5V13V15.5C79.8233 15.5 85 20.6767 85 27.0625H87.5ZM73.4375 88V90.5C82.5847 90.5 90 83.0847 90 73.9375H87.5H85C85 80.3233 79.8233 85.5 73.4375 85.5V88ZM12.5 73.9375H10C10 83.0847 17.4153 90.5 26.5625 90.5V88V85.5C20.1767 85.5 15 80.3233 15 73.9375H12.5ZM12.5 27.0625H15C15 20.6767 20.1767 15.5 26.5625 15.5V13V10.5C17.4153 10.5 10 17.9153 10 27.0625H12.5ZM36.1988 53.947L37.8149 55.8545C37.9892 55.7068 38.135 55.5559 38.1883 55.5017L36.4051 53.7495L34.6219 51.9973C34.6044 52.0151 34.5927 52.027 34.5817 52.038C34.5714 52.0485 34.5651 52.0546 34.5613 52.0583C34.5533 52.0661 34.5621 52.0571 34.5827 52.0396L36.1988 53.947ZM27.7265 61.1256L29.3427 63.033L37.8149 55.8544L36.1988 53.947L34.5827 52.0397L26.1104 59.2182L27.7265 61.1256ZM27.2624 61.6143L29.3144 63.0423C29.2868 63.0821 29.2684 63.1003 29.2723 63.0963C29.274 63.0945 29.2801 63.0884 29.292 63.0774C29.3039 63.0665 29.3203 63.052 29.3427 63.033L27.7265 61.1256L26.1104 59.2182C25.8665 59.4249 25.5178 59.7446 25.2104 60.1863L27.2624 61.6143ZM26.5625 63.8455H29.0625C29.0625 63.5574 29.151 63.2772 29.3144 63.0423L27.2624 61.6143L25.2104 60.1863C24.4656 61.2565 24.0625 62.5328 24.0625 63.8455H26.5625ZM26.5625 71.9844H29.0625V63.8455H26.5625H24.0625V71.9844H26.5625ZM28.5156 73.9375V71.4375C28.8176 71.4375 29.0625 71.6824 29.0625 71.9844H26.5625H24.0625C24.0625 74.4438 26.0562 76.4375 28.5156 76.4375V73.9375ZM71.4844 73.9375V71.4375H28.5156V73.9375V76.4375H71.4844V73.9375ZM73.4375 71.9844H70.9375C70.9375 71.6823 71.1824 71.4375 71.4844 71.4375V73.9375V76.4375C73.9438 76.4375 75.9375 74.4438 75.9375 71.9844H73.4375ZM73.4375 57.0649H70.9375V71.9844H73.4375H75.9375V57.0649H73.4375ZM72.2365 54.247L70.5051 56.0504C70.7814 56.3156 70.9375 56.682 70.9375 57.0649H73.4375H75.9375C75.9375 55.3205 75.2262 53.6515 73.9678 52.4435L72.2365 54.247ZM65.0056 47.3053L63.2742 49.1088L70.5051 56.0504L72.2365 54.247L73.9678 52.4435L66.7369 45.5018L65.0056 47.3053ZM62.3203 47.2864L64.0261 49.1141C63.8138 49.3122 63.4837 49.3099 63.2742 49.1088L65.0056 47.3053L66.7369 45.5018C65.0312 43.8644 62.3431 43.8454 60.6145 45.4588L62.3203 47.2864ZM48.9268 59.8743L50.639 61.696L64.0324 49.1081L62.3203 47.2864L60.6082 45.4647L47.2147 58.0526L48.9268 59.8743ZM46.2003 59.8148L44.4139 61.5638C46.0896 63.2752 48.8509 63.3649 50.6326 61.702L48.9268 59.8743L47.221 58.0467C47.4408 57.8416 47.779 57.8537 47.9866 58.0658L46.2003 59.8148ZM46.1651 59.7787L44.3752 61.524L44.4104 61.5601L46.2003 59.8148L47.9902 58.0694L47.955 58.0333L46.1651 59.7787ZM45.9737 59.5929L44.3369 61.4825C44.3178 61.466 44.3096 61.4575 44.3172 61.465C44.3207 61.4684 44.3265 61.4742 44.3361 61.484C44.3463 61.4944 44.3572 61.5056 44.3735 61.5223L46.1651 59.7787L47.9567 58.0351C47.9073 57.9843 47.7717 57.8428 47.6105 57.7032L45.9737 59.5929ZM39.449 53.9414L37.8122 55.8311L44.3369 61.4826L45.9737 59.5929L47.6105 57.7032L41.0858 52.0517L39.449 53.9414ZM39.2568 53.7548L37.4646 55.4977C37.5144 55.5489 37.6504 55.6909 37.8122 55.8311L39.449 53.9414L41.0858 52.0517C41.1049 52.0683 41.1131 52.0768 41.1056 52.0694C41.1021 52.0659 41.0962 52.0601 41.0866 52.0502C41.0763 52.0398 41.0654 52.0286 41.0491 52.0118L39.2568 53.7548ZM39.2225 53.7195L37.4319 55.4642L37.4663 55.4995L39.2568 53.7548L41.0474 52.0101L41.013 51.9748L39.2225 53.7195ZM36.4422 53.7119L38.2198 55.4697C38.0016 55.6903 37.6526 55.6898 37.4353 55.4677L39.2225 53.7195L41.0096 51.9713C39.2719 50.1949 36.4096 50.1893 34.6645 51.954L36.4422 53.7119ZM36.4051 53.7495L38.1863 55.5037L38.2234 55.4661L36.4422 53.7119L34.661 51.9576L34.6239 51.9953L36.4051 53.7495ZM66.8732 29.4055V31.9055H68.2137V29.4055V26.9055H66.8732V29.4055ZM68.2137 29.4055H65.7137V30.5407H68.2137H70.7137V29.4055H68.2137ZM68.2137 30.5407V28.0407H66.8732V30.5407V33.0407H68.2137V30.5407ZM66.8732 30.5407H69.3732V29.4055H66.8732H64.3732V30.5407H66.8732Z" fill="#6E6E6E" fill-opacity="0.5"/>
</svg>
