<svg width="30" height="30" viewBox="0 0 30 30" fill="none" xmlns="http://www.w3.org/2000/svg">
<path d="M22.5 5H7.5C4.743 5 2.5 7.24237 2.5 10V20C2.5 22.7576 4.743 25 7.5 25H22.5C25.257 25 27.5 22.7576 27.5 20V10C27.5 7.24237 25.257 5 22.5 5ZM25 20C25 21.3781 23.8787 22.5 22.5 22.5H7.5C6.12125 22.5 5 21.3781 5 20V12.5H25V20ZM5 10C5 8.62188 6.12125 7.5 7.5 7.5H22.5C23.8787 7.5 25 8.62188 25 10H5Z" fill="white"/>
<path d="M13.3837 18.3837L13.7499 18.0175V19.9999C13.7499 20.6908 14.3097 21.2499 14.9999 21.2499C15.6902 21.2499 16.2499 20.6908 16.2499 19.9999V18.0175L16.6162 18.3838C16.8603 18.6278 17.1801 18.7499 17.4999 18.7499C17.8198 18.7499 18.1396 18.6278 18.3837 18.3837C18.8719 17.8954 18.8719 17.1044 18.3837 16.616L15.8846 14.1169C15.7692 14.0013 15.6307 13.9097 15.4773 13.8462C15.1719 13.7199 14.8279 13.7199 14.5226 13.8462C14.3692 13.9097 14.2307 14.0013 14.1153 14.1169L11.6162 16.6162C11.1279 17.1044 11.1279 17.8954 11.6162 18.3838C12.1044 18.8722 12.8954 18.872 13.3837 18.3837Z" fill="white"/>
</svg>
