<svg width="40" height="41" viewBox="0 0 40 41" fill="none" xmlns="http://www.w3.org/2000/svg">
<path d="M25.9755 13.6078C26.2194 13.3699 26.601 13.3699 26.8368 13.6078C27.0807 13.8457 27.0807 14.239 26.8368 14.4769L25.3573 15.9701C26.5363 17.053 27.536 18.5142 28.2841 20.2699C28.349 20.4257 28.3491 20.6057 28.2841 20.7533C26.544 24.8389 23.4465 27.2835 19.9989 27.2835H19.9911C18.4218 27.2835 16.9171 26.7671 15.5917 25.8236L14.0145 27.4154C13.8926 27.5384 13.7374 27.596 13.5829 27.596C13.4285 27.5959 13.266 27.5383 13.1522 27.4154C12.949 27.2103 12.9164 26.8818 13.079 26.6439L13.1034 26.6117L25.1298 14.4769C25.1459 14.4607 25.1617 14.4443 25.1698 14.4281C25.1861 14.4117 25.2027 14.3947 25.2108 14.3783L25.9755 13.6078ZM20.0009 13.7503C21.1636 13.7503 22.2941 14.029 23.3348 14.554L20.619 17.2943C20.4239 17.2615 20.2123 17.2367 20.0009 17.2367C18.204 17.2368 16.7489 18.7058 16.7489 20.5189C16.7489 20.732 16.7731 20.9452 16.8056 21.1419L13.7968 24.1781C12.9836 23.2264 12.2768 22.0771 11.7157 20.7562C11.6508 20.6086 11.6507 20.4286 11.7157 20.2728C13.4558 16.1871 16.5536 13.7503 19.9931 13.7503H20.0009ZM21.7958 19.5638C21.9421 19.8428 22.0233 20.1714 22.0233 20.516C22.0231 21.6397 21.1127 22.5579 19.9989 22.558C19.6574 22.558 19.332 22.4761 19.0556 22.3285L18.1698 23.223C18.6901 23.5756 19.3242 23.7894 19.9989 23.7894C21.7876 23.7894 23.2428 22.3207 23.2431 20.516C23.2431 19.835 23.0321 19.1944 22.6825 18.6693L21.7958 19.5638Z" fill="#616161"/>
</svg>
