<svg width="23" height="23" viewBox="0 0 23 23" fill="none" xmlns="http://www.w3.org/2000/svg">
<mask id="mask0_7001_4323" style="mask-type:luminance" maskUnits="userSpaceOnUse" x="13" y="2" width="9" height="9">
<path fill-rule="evenodd" clip-rule="evenodd" d="M13.4155 2.28516H21.1413V10.0053H13.4155V2.28516Z" fill="white"/>
</mask>
<g mask="url(#mask0_7001_4323)">
<path fill-rule="evenodd" clip-rule="evenodd" d="M20.4624 10.0053C20.1214 10.0053 19.8282 9.74927 19.7893 9.40275C19.4464 6.34827 17.0741 3.9778 14.0187 3.63851C13.6469 3.59689 13.3782 3.26213 13.4198 2.88937C13.4605 2.51751 13.7925 2.24337 14.1689 2.29042C17.8585 2.70027 20.7239 5.56204 21.1374 9.25075C21.179 9.62351 20.9112 9.95918 20.5394 10.0008C20.514 10.0035 20.4878 10.0053 20.4624 10.0053" fill="white"/>
</g>
<path fill-rule="evenodd" clip-rule="evenodd" d="M17.2593 10.0142C16.9408 10.0142 16.6576 9.78985 16.5943 9.46595C16.3337 8.1269 15.3014 7.09456 13.9642 6.8349C13.5959 6.76342 13.3562 6.40785 13.4276 6.03961C13.4991 5.67137 13.861 5.43071 14.2229 5.50309C16.1057 5.86861 17.5597 7.32166 17.9261 9.20537C17.9976 9.57452 17.7578 9.93009 17.3905 10.0016C17.3462 10.0097 17.3027 10.0142 17.2593 10.0142" fill="white"/>
<path d="M3.46973 4.10449C5.21354 2.36054 6.34987 1.89895 7.56152 2.5957C7.90986 2.79609 8.23663 3.07637 8.68066 3.52734L10.0439 4.94043C10.7966 5.76176 10.9676 6.55007 10.7227 7.47266L10.6885 7.59473L10.6514 7.7168L10.4688 8.25098C10.0788 9.44975 10.2415 10.1266 11.6289 11.5137C13.0717 12.9561 13.7458 13.0743 15.0371 12.623L15.2666 12.543L15.5449 12.4521L15.667 12.4189C16.6478 12.1573 17.4768 12.3661 18.3555 13.2441L19.4531 14.3047L19.7764 14.6221C20.1347 14.9875 20.3719 15.277 20.5469 15.583C21.2392 16.7943 20.7763 17.9295 18.9824 19.7168L18.8115 19.8896C18.5437 20.1478 18.2934 20.3333 17.9258 20.5078C17.3087 20.8008 16.5795 20.9117 15.7324 20.7939C13.6448 20.5036 10.9966 18.8561 7.6416 15.502C7.36849 15.2289 7.10675 14.9608 6.85645 14.6982L6.37109 14.1797C1.82058 9.2357 1.41865 6.19883 3.2832 4.29395L3.4043 4.17383L3.46973 4.10449ZM6.88477 3.77246C6.4672 3.53234 6.016 3.63345 5.18164 4.35156L4.91992 4.58594C4.87419 4.62815 4.82716 4.67231 4.7793 4.71777L4.47852 5.01074L4.45117 5.04395L4.24805 5.24902C3.75554 5.75208 3.52162 6.36599 3.72266 7.42188C4.05254 9.15445 5.56264 11.5048 8.60059 14.542C11.7662 17.7068 14.1785 19.2071 15.9189 19.4492C16.9333 19.5903 17.4509 19.3451 17.9785 18.8047L18.3818 18.3984C18.5704 18.2011 18.7311 18.0218 18.8672 17.8584L19.0537 17.624C19.5281 16.992 19.571 16.6128 19.3682 16.2578C19.291 16.1227 19.1791 15.9739 19.0156 15.793L18.793 15.5586L18.6621 15.4268L17.2764 14.0898C16.8134 13.6629 16.497 13.6023 16.0166 13.7305L15.8779 13.7695L15.3047 13.9648C13.6399 14.5025 12.4385 14.2417 10.6699 12.4736C8.8381 10.6423 8.62354 9.41905 9.2373 7.6582L9.27637 7.54492L9.38477 7.2168L9.43848 7.00781C9.5333 6.55288 9.42464 6.23527 8.93555 5.74609C8.91554 5.72609 8.89343 5.70334 8.86914 5.67871L7.58203 4.34863C7.28742 4.05819 7.07347 3.88102 6.88477 3.77246Z" fill="white"/>
</svg>
