<svg width="23" height="23" viewBox="0 0 23 23" fill="none" xmlns="http://www.w3.org/2000/svg">
<g clip-path="url(#clip0_7001_6)">
<path d="M11.1766 3.30469C14.0989 3.30469 17.0221 3.30469 19.9444 3.30645C20.2549 3.30645 20.5645 3.32492 20.8638 3.43314C21.574 3.69004 22.0886 4.39124 22.1226 5.16723C22.1353 5.45492 22.143 5.7435 22.143 6.03119C22.1447 9.61902 22.1447 13.2077 22.143 16.7956C22.143 17.217 22.1158 17.6366 21.9074 18.015C21.5638 18.6405 21.0484 18.9977 20.3493 19.0514C20.1069 19.0698 19.8619 19.0734 19.6187 19.0734C13.9365 19.0742 8.25337 19.0742 2.57114 19.0734C2.0923 19.0734 1.63473 18.9951 1.23924 18.6898C0.756156 18.3167 0.483143 17.8223 0.451675 17.1959C0.438067 16.9231 0.431262 16.6486 0.431262 16.3759C0.428711 12.759 0.428711 9.14217 0.428711 5.52443C0.428711 5.03878 0.498452 4.57072 0.784223 4.16513C1.14229 3.65837 1.61857 3.36627 2.22923 3.32756C2.47928 3.31173 2.73018 3.30557 2.98108 3.30557C5.71291 3.30469 8.44474 3.30469 11.1766 3.30469ZM19.9674 4.62967H2.58815C2.82034 4.8593 3.03722 5.06781 3.24729 5.28336C4.58088 6.65057 5.91448 8.01954 7.24637 9.38851C8.11559 10.2824 8.98226 11.1771 9.84807 12.0737C10.1551 12.3913 10.5055 12.6279 10.9401 12.6992C11.6358 12.8127 12.2201 12.5971 12.7194 12.0789C13.9407 10.8112 15.1714 9.55392 16.4004 8.29404C17.5664 7.09839 18.7342 5.90538 19.9011 4.71061C19.9223 4.68949 19.9393 4.66398 19.9674 4.62967ZM2.64853 17.7501H19.9742C19.9478 17.7211 19.9342 17.7053 19.9198 17.6903C19.2861 17.0437 18.6525 16.3988 18.0197 15.7512C16.8571 14.5626 15.6953 13.374 14.5344 12.1828C14.4791 12.1265 14.4502 12.1309 14.3991 12.1845C14.1261 12.4705 13.8506 12.7538 13.5741 13.0353C12.9575 13.6652 12.2167 14.0136 11.3484 14.0339C10.4324 14.055 9.65586 13.6934 9.00267 13.0432C8.7203 12.7626 8.44729 12.4713 8.17257 12.1828C8.1224 12.13 8.09433 12.1238 8.03819 12.1828C7.17408 13.0705 6.30656 13.9547 5.44075 14.8415C4.72037 15.5788 4.00084 16.3161 3.28386 17.0577C3.06188 17.2874 2.85266 17.5284 2.64853 17.7528V17.7501ZM7.12815 11.1604C5.35655 9.31813 3.54072 7.43096 1.70957 5.52619V16.822C1.71893 16.829 1.72829 16.836 1.73764 16.8431C3.53901 14.9445 5.34039 13.045 7.12815 11.1596V11.1604ZM20.8655 5.5605C20.8562 5.55258 20.8468 5.54466 20.8375 5.53674C19.0182 7.42128 17.199 9.30669 15.3738 11.1965C17.2075 13.0793 19.0318 14.9524 20.8655 16.8351V5.5605Z" fill="white"/>
</g>
<defs>
<clipPath id="clip0_7001_6">
<rect width="21.7143" height="15.7696" fill="white" transform="translate(0.428711 3.30469)"/>
</clipPath>
</defs>
</svg>
