<svg width="90" height="90" viewBox="0 0 90 90" fill="none" xmlns="http://www.w3.org/2000/svg">
<path d="M60.7158 7.5C72.2995 7.5 78.7499 14.1749 78.75 25.6123V64.3496C78.75 75.9746 72.2996 82.5 60.7158 82.5H29.2871C17.8873 82.4998 11.25 75.9745 11.25 64.3496V25.6123C11.2501 14.1751 17.8874 7.50015 29.2871 7.5H60.7158ZM30.2998 59.0254C29.1749 58.913 28.0872 59.4382 27.4873 60.4131C26.8877 61.3505 26.8875 62.5877 27.4873 63.5625C28.0872 64.4998 29.175 65.0629 30.2998 64.9131H59.6992C61.1952 64.7631 62.3238 63.4842 62.3242 61.9883C62.3242 60.4508 61.1955 59.1754 59.6992 59.0254H30.2998ZM30.2998 41.9219C28.6837 41.9221 27.375 43.2382 27.375 44.8506C27.3753 46.4627 28.6839 47.7752 30.2998 47.7754H59.6992C61.3115 47.7754 62.6247 46.4628 62.625 44.8506C62.625 43.2381 61.3117 41.9219 59.6992 41.9219H30.2998ZM30.2998 24.9375V24.9756C28.6837 24.9758 27.375 26.288 27.375 27.9004C27.3752 29.5126 28.6839 30.825 30.2998 30.8252H41.5088C43.1246 30.825 44.4372 29.5127 44.4375 27.8594C44.4375 26.2508 43.1248 24.9377 41.5088 24.9375H30.2998Z" fill="#EB0101" fill-opacity="0.8"/>
</svg>
