<svg width="50" height="50" viewBox="0 0 50 50" fill="none" xmlns="http://www.w3.org/2000/svg">
<path d="M25 -0.00012207C11.1945 -0.00012207 0 11.1911 0 25.0071C0 38.8231 11.1945 49.9999 25 49.9999C38.8055 49.9999 50 38.8086 50 25.0071C50 11.2055 38.8055 -0.00012207 25 -0.00012207Z" fill="#0051DE"/>
<path d="M25.0019 33.9343C29.9211 33.9343 33.9315 29.9394 33.9315 25.0072C33.9315 20.075 29.9211 16.0802 25.0019 16.0802C20.0827 16.0802 16.0723 20.0894 16.0723 25.0072C16.0723 29.925 20.0682 33.9343 25.0019 33.9343ZM18.2361 25.0072C18.2361 21.272 21.2656 18.2435 25.0019 18.2435C28.7382 18.2435 31.7676 21.272 31.7676 25.0072C31.7676 28.7424 28.7382 31.771 25.0019 31.771C21.2656 31.771 18.2361 28.7424 18.2361 25.0072Z" fill="white"/>
<path d="M33.8728 39.833H16.0569C12.7101 39.833 9.99805 37.1217 9.99805 33.7759V16.2391C9.99805 12.8933 12.7101 10.182 16.0569 10.182H33.8728C37.2196 10.182 39.9317 12.9077 39.9317 16.2391V33.7759C39.9317 37.1217 37.2196 39.833 33.8728 39.833ZM16.0569 12.3885C13.9363 12.3885 12.2052 14.1191 12.2052 16.2391V33.7759C12.2052 35.8959 13.9363 37.6265 16.0569 37.6265H33.8728C35.9934 37.6265 37.7245 35.8959 37.7245 33.7759V16.2391C37.7245 14.1191 35.9934 12.3885 33.8728 12.3885H16.0569Z" fill="white"/>
<path d="M34.0478 15.0728C33.2681 15.0728 32.6328 15.7079 32.6328 16.4873C32.6328 17.2668 33.2681 17.9019 34.0478 17.9019C34.8275 17.9019 35.4628 17.2668 35.4628 16.4873C35.4628 15.7079 34.8275 15.0728 34.0478 15.0728Z" fill="white"/>
</svg>
