<svg width="24" height="24" viewBox="0 0 24 24" fill="none" xmlns="http://www.w3.org/2000/svg">
<path d="M11.909 0.414062C5.58226 0.414062 0.452148 5.54417 0.452148 11.8775C0.452148 18.2108 5.58226 23.3343 11.909 23.3343C18.2357 23.3343 23.3658 18.2042 23.3658 11.8775C23.3658 5.55079 18.2357 0.414062 11.909 0.414062Z" fill="white"/>
<path d="M11.9096 15.9705C14.1639 15.9705 16.0018 14.1393 16.0018 11.8783C16.0018 9.61737 14.1639 7.78613 11.9096 7.78613C9.65523 7.78613 7.81738 9.62398 7.81738 11.8783C7.81738 14.1327 9.64862 15.9705 11.9096 15.9705ZM8.80903 11.8783C8.80903 10.1661 10.1973 8.77778 11.9096 8.77778C13.6218 8.77778 15.0101 10.1661 15.0101 11.8783C15.0101 13.5906 13.6218 14.9789 11.9096 14.9789C10.1973 14.9789 8.80903 13.5906 8.80903 11.8783Z" fill="#0A2463"/>
<path d="M15.9753 18.6742H7.81079C6.27705 18.6742 5.03418 17.4313 5.03418 15.8976V7.85864C5.03418 6.32489 6.27705 5.08203 7.81079 5.08203H15.9753C17.5091 5.08203 18.7519 6.3315 18.7519 7.85864V15.8976C18.7519 17.4313 17.5091 18.6742 15.9753 18.6742ZM7.81079 6.09351C6.83898 6.09351 6.04566 6.88683 6.04566 7.85864V15.8976C6.04566 16.8694 6.83898 17.6627 7.81079 17.6627H15.9753C16.9472 17.6627 17.7405 16.8694 17.7405 15.8976V7.85864C17.7405 6.88683 16.9472 6.09351 15.9753 6.09351H7.81079Z" fill="#0A2463"/>
<path d="M16.0552 7.32422C15.6979 7.32422 15.4067 7.61536 15.4067 7.97266C15.4067 8.32997 15.6979 8.6211 16.0552 8.6211C16.4125 8.6211 16.7036 8.32997 16.7036 7.97266C16.7036 7.61536 16.4125 7.32422 16.0552 7.32422Z" fill="#0A2463"/>
</svg>
