<svg width="24" height="24" viewBox="0 0 24 24" fill="none" xmlns="http://www.w3.org/2000/svg">
<path d="M23.8633 11.8791C23.8633 5.55905 18.7397 0.435547 12.4197 0.435547C6.09957 0.435547 0.976074 5.55905 0.976074 11.8791C0.976074 18.1992 6.09957 23.3227 12.4197 23.3227C18.7397 23.3227 23.8633 18.1992 23.8633 11.8791Z" fill="white"/>
<path d="M9.62317 9.08984H6.97217V16.666H9.62317V9.08984Z" fill="#0A2463"/>
<path d="M8.29445 5.30176C7.46808 5.30176 6.81359 6.06202 7.00531 6.92145C7.1177 7.42388 7.52096 7.82054 8.0234 7.9197C8.87621 8.09159 9.62326 7.45032 9.62326 6.62395C9.62326 5.89674 9.03488 5.30176 8.29445 5.30176Z" fill="#0A2463"/>
<path d="M18.3292 11.4169C18.1507 9.98894 17.4367 9.08984 15.5063 9.08984C14.1379 9.08984 13.5892 9.30139 13.2784 9.90299V9.08984H11.1299V16.666H13.3379V12.6994C13.3379 11.7078 13.5231 10.9607 14.7461 10.9607C15.9691 10.9607 16.0484 11.8797 16.0484 12.7589V16.6594H18.3226C18.3226 16.6594 18.3689 11.7475 18.3226 11.4169H18.3292Z" fill="#0A2463"/>
</svg>
