<svg width="50" height="50" viewBox="0 0 50 50" fill="none" xmlns="http://www.w3.org/2000/svg">
<path d="M50 25C50 11.193 38.8071 0 25 0C11.193 0 0 11.193 0 25C0 38.807 11.193 50 25 50C38.8071 50 50 38.807 50 25Z" fill="#0051DE"/>
<path d="M18.8911 18.9055H13.0996V35.4566H18.8911V18.9055Z" fill="white"/>
<path d="M15.9894 10.6299C14.1841 10.6299 12.7542 12.2908 13.1731 14.1683C13.4186 15.2659 14.2996 16.1325 15.3972 16.3491C17.2603 16.7246 18.8923 15.3237 18.8923 13.5184C18.8923 11.9297 17.6069 10.6299 15.9894 10.6299Z" fill="white"/>
<path d="M37.9115 23.9893C37.5215 20.8697 35.9618 18.9055 31.7445 18.9055C28.7549 18.9055 27.5562 19.3677 26.8774 20.6819V18.9055H22.1836V35.4566H27.0074V26.7911C27.0074 24.6248 27.4118 22.9928 30.0837 22.9928C32.7555 22.9928 32.9288 25.0003 32.9288 26.9211V35.4422H37.897C37.897 35.4422 37.9981 24.7114 37.897 23.9893H37.9115Z" fill="white"/>
</svg>
