<svg width="50" height="50" viewBox="0 0 50 50" fill="none" xmlns="http://www.w3.org/2000/svg">
<path d="M50 25C50 11.193 38.8071 0 25 0C11.193 0 0 11.193 0 25C0 38.807 11.193 50 25 50C38.8071 50 50 38.807 50 25Z" fill="#0051DE"/>
<path d="M39.5144 17.505C38.5179 17.9094 37.4347 18.1838 36.3226 18.3138C37.5069 17.6205 38.4312 16.5373 38.9078 15.2375C38.9367 15.1509 38.85 15.0786 38.7778 15.122C37.6658 15.743 36.4381 16.2052 35.1383 16.4507C34.0262 15.2808 32.452 14.5587 30.7045 14.5587C27.3538 14.5587 24.6242 17.245 24.6242 20.5379C24.6242 21.0145 24.6819 21.4622 24.783 21.8955C19.7426 21.65 15.2798 19.2814 12.2902 15.6852C12.2758 15.6708 12.2469 15.6708 12.2325 15.6852C11.727 16.5518 11.4381 17.5628 11.4381 18.6459C11.4381 20.6823 12.4636 22.4732 14.0378 23.5564C14.0667 23.5853 14.0522 23.6286 14.0089 23.6286C13.0846 23.5853 12.2036 23.3253 11.4381 22.9209C11.4237 22.9065 11.3948 22.9209 11.3948 22.9498C11.4093 23.2098 11.4959 24.3796 11.7992 25.1451C12.5647 27.0082 14.2111 28.438 16.2619 28.8424C15.742 28.9724 15.2076 29.059 14.6588 29.059C14.2833 29.059 13.9223 29.0157 13.5612 28.9579C13.5323 28.9579 13.5179 28.9724 13.5179 29.0012C14.2978 31.312 16.4786 33.0163 19.0782 33.1029C19.1071 33.1029 19.1216 33.1462 19.0927 33.1751C17.0274 34.7494 14.4422 35.6737 11.6259 35.6737C11.1348 35.6737 10.6582 35.6448 10.1816 35.587C12.8679 37.2768 16.0597 38.2733 19.4971 38.2733C24.2198 38.2733 28.047 36.6413 30.8778 34.1717C33.7374 31.6731 35.6005 28.308 36.3659 24.8707C36.6403 23.6575 36.7848 22.4443 36.7848 21.26C36.7848 21.0001 36.7848 20.7401 36.7703 20.4801C37.8679 19.7003 38.8356 18.7326 39.6155 17.6494C39.6733 17.5772 39.5866 17.4761 39.5 17.5194L39.5144 17.505Z" fill="white"/>
</svg>
