<svg width="24" height="24" viewBox="0 0 24 24" fill="none" xmlns="http://www.w3.org/2000/svg">
<path d="M23.0971 11.8791C23.0971 5.55905 17.9736 0.435547 11.6535 0.435547C5.33346 0.435547 0.209961 5.55905 0.209961 11.8791C0.209961 18.1992 5.33346 23.3227 11.6535 23.3227C17.9736 23.3227 23.0971 18.1992 23.0971 11.8791Z" fill="white"/>
<path d="M18.2975 8.44825C17.8413 8.63335 17.3455 8.75896 16.8365 8.81846C17.3786 8.50114 17.8017 8.00531 18.0198 7.41033C18.033 7.37066 17.9934 7.3376 17.9603 7.35744C17.4513 7.64171 16.8893 7.85326 16.2944 7.96565C15.7853 7.43016 15.0647 7.09961 14.2648 7.09961C12.7311 7.09961 11.4816 8.32925 11.4816 9.83655C11.4816 10.0547 11.508 10.2597 11.5543 10.458C9.24707 10.3456 7.20428 9.2614 5.83581 7.61526C5.8292 7.60865 5.81597 7.60865 5.80936 7.61526C5.57798 8.01192 5.44576 8.47469 5.44576 8.97051C5.44576 9.90266 5.91514 10.7224 6.63573 11.2182C6.64895 11.2315 6.64234 11.2513 6.62251 11.2513C6.19941 11.2315 5.79614 11.1125 5.44576 10.9274C5.43915 10.9208 5.42593 10.9274 5.42593 10.9406C5.43254 11.0596 5.4722 11.5951 5.61103 11.9455C5.96141 12.7983 6.71507 13.4528 7.65382 13.6379C7.41583 13.6974 7.17122 13.737 6.92 13.737C6.74812 13.737 6.58285 13.7172 6.41757 13.6907C6.40435 13.6907 6.39774 13.6974 6.39774 13.7106C6.75473 14.7683 7.75299 15.5484 8.94296 15.5881C8.95618 15.5881 8.96279 15.6079 8.94957 15.6212C8.0042 16.3417 6.82084 16.7648 5.5317 16.7648C5.30693 16.7648 5.08877 16.7516 4.87061 16.7252C6.10025 17.4987 7.56127 17.9548 9.13468 17.9548C11.2965 17.9548 13.0484 17.2078 14.3441 16.0773C15.6531 14.9336 16.5059 13.3933 16.8563 11.8198C16.9819 11.2645 17.048 10.7092 17.048 10.1671C17.048 10.0481 17.048 9.92911 17.0414 9.81011C17.5438 9.45312 17.9868 9.01018 18.3438 8.51436C18.3702 8.4813 18.3305 8.43503 18.2909 8.45486L18.2975 8.44825Z" fill="#0A2463"/>
</svg>
