<svg width="24" height="24" viewBox="0 0 24 24" fill="none" xmlns="http://www.w3.org/2000/svg">
<path d="M23.8757 11.8791C23.8757 5.55905 18.7456 0.435547 12.4255 0.435547C6.10543 0.435547 0.981934 5.55905 0.981934 11.8791C0.981934 18.1992 6.10543 23.3227 12.4255 23.3227C18.7456 23.3227 23.8691 18.1992 23.8691 11.8791H23.8757Z" fill="white"/>
<path d="M9.14611 7.66113H15.7108C17.0793 7.66113 18.1899 8.77178 18.1899 10.1402V13.6308C18.1899 14.9993 17.0793 16.11 15.7108 16.11H9.14611C7.77764 16.11 6.66699 14.9993 6.66699 13.6308V10.1402C6.66699 8.77178 7.77764 7.66113 9.14611 7.66113Z" fill="#0A2463"/>
<path d="M14.772 11.9045L10.9244 13.9804C10.7988 14.0531 10.6401 13.9539 10.6401 13.8085V9.63698C10.6401 9.49154 10.7922 9.39898 10.9244 9.46509L14.772 11.5608C14.9042 11.6335 14.9042 11.8252 14.772 11.8979V11.9045Z" fill="white"/>
</svg>
