<svg width="50" height="50" viewBox="0 0 50 50" fill="none" xmlns="http://www.w3.org/2000/svg">
<path d="M50 25C50 11.193 38.7958 0 24.9928 0C11.1897 0 0 11.193 0 25C0 38.807 11.1897 50 24.9928 50C38.7958 50 49.9855 38.807 49.9855 25H50Z" fill="#0051DE"/>
<path d="M17.8304 15.7861H32.1677C35.1564 15.7861 37.582 18.2125 37.582 21.2021V28.8277C37.582 31.8173 35.1564 34.2437 32.1677 34.2437H17.8304C14.8417 34.2437 12.416 31.8173 12.416 28.8277V21.2021C12.416 18.2125 14.8417 15.7861 17.8304 15.7861Z" fill="white"/>
<path d="M30.1158 25.0561L21.7126 29.591C21.4383 29.7499 21.0918 29.5333 21.0918 29.2155V20.1023C21.0918 19.7846 21.4239 19.5824 21.7126 19.7268L30.1158 24.3051C30.4045 24.4639 30.4045 24.8828 30.1158 25.0416V25.0561Z" fill="#0051DE"/>
</svg>
